<?xml version="1.0" encoding="utf-8"?>
<!-- Generator: Adobe Illustrator 16.0.0, SVG Export Plug-In . SVG Version: 6.00 Build 0)  -->
<!DOCTYPE svg PUBLIC "-//W3C//DTD SVG 1.1//EN" "http://www.w3.org/Graphics/SVG/1.1/DTD/svg11.dtd">
<svg version="1.1" id="Layer_1" xmlns="http://www.w3.org/2000/svg" xmlns:xlink="http://www.w3.org/1999/xlink" x="0px" y="0px"
	 width="50px" height="50px" viewBox="0 0 50 50" enable-background="new 0 0 50 50" xml:space="preserve">
<circle fill-rule="evenodd" clip-rule="evenodd" fill="#FFFFFF" cx="25.004" cy="25.004" r="25.004"/>
<path fill-rule="evenodd" clip-rule="evenodd" fill="#BBBDBB" d="M27.896,42.746c-0.376,0.402-0.549,0.927-0.89,1.344
	c-0.572-0.274-1.143-0.559-1.577-1.034c-0.226-0.249-0.352-0.187-0.553,0.035c-0.292,0.319-0.635,0.591-0.952,0.89
	c-0.11,0.104-0.221,0.146-0.361,0.085c-0.382-0.905-0.959-1.667-1.662-2.349c-0.46-0.451-1.09-0.55-1.608-0.87
	c-0.203-0.127-0.387-0.27-0.653-0.324c-0.673-0.136-1.348-0.103-2.021-0.109c-0.721-0.006-1.296,0.424-1.868,0.788
	c-0.722,0.462-1.438,0.946-1.95,1.66c-0.453,0.07-0.506-0.373-0.636-0.592c-0.246-0.417-0.559-0.41-0.941-0.38
	c-1.263,0.098-2.517,0.148-3.778-0.107c-0.457-0.09-0.72-0.367-0.962-0.649c-0.702-0.816-1.323-1.696-1.78-2.683
	c-0.391-0.848-0.374-1.748-0.314-2.637c0.042-0.654-0.155-0.993-0.756-1.324c-1.897-1.05-3.201-2.613-3.692-4.774
	c0,0-0.167-1.306-0.151-1.742c0.015-0.408,0.255-1.618,0.255-1.618c0.246-1.91,1.162-3.506,2.317-4.99
	c0.104-0.135,0.146-0.219,0.094-0.395c-0.366-1.229-0.679-2.474-0.862-3.739c-0.135-0.924-0.085-1.866,0.091-2.816
	c0.223-1.193,0.851-2.175,1.526-3.081c0.637-0.854,1.479-1.594,2.419-2.16c0.492-0.297,1.064-0.299,1.621-0.333
	c0.793-0.045,1.586-0.038,2.367,0.118c0.256,0.051,0.297-0.024,0.344-0.258c0.206-0.986,0.42-1.972,0.877-2.884
	c0.585-1.17,1.512-1.916,2.749-2.339c1.291-0.441,2.617-0.567,3.938-0.382c1.611,0.226,3.077,0.812,4,2.299
	c0.503,0.81,0.517,0.785,1.028-0.014c0.765-1.192,1.573-2.362,2.813-3.124c1.174-0.722,2.469-0.923,3.79-0.569
	c1.232,0.329,2.455,0.723,3.448,1.59c0.782,0.686,1.411,1.504,1.834,2.443c0.208,0.459,0.231,1.017,0.268,1.535
	c0.041,0.613,0.491,1.041,1.229,0.808c1.097-0.345,2.219-0.461,3.35-0.214c2.443,0.533,4.65,2.801,4.583,5.567
	c-0.029,1.129,0.104,2.28-0.076,3.386c-0.136,0.806,0.18,1.125,0.755,1.541c1.751,1.271,2.902,2.985,3.247,5.136
	c0.108,0.674-0.08,1.411-0.213,2.102c-0.408,2.126-1.239,4.091-2.391,5.916c-0.305,0.483-0.26,0.987-0.204,1.471
	c0.201,1.724,0.127,3.414-0.26,5.118c-0.331,1.465-1.085,2.605-2.197,3.56c-0.477,0.405-1.09,0.495-1.624,0.758
	c-0.71,0.352-1.412,0.211-2.104,0.103c-0.595-0.095-1.211,0.024-1.777-0.234c-0.085-0.039-0.195-0.03-0.227,0.048
	c-0.187,0.451-0.601,0.758-0.758,1.224c-0.157,0.082-0.234-0.05-0.273-0.142c-0.313-0.739-1.027-1.094-1.538-1.646"/>
<path fill-rule="evenodd" clip-rule="evenodd" fill="#282B32" d="M13.802,42.861c0.512-0.714,1.228-1.198,1.95-1.66
	c0.572-0.364,1.147-0.794,1.868-0.788c0.673,0.007,1.348-0.026,2.021,0.109c0.267,0.055,0.451,0.197,0.653,0.324
	c0.519,0.32,1.148,0.419,1.608,0.87c0.702,0.682,1.28,1.443,1.662,2.349c-0.053,0.174,0.066,0.276,0.156,0.399
	c0.245,0.334,0.388,0.714,0.28,1.129c-0.098,0.378,0.158,0.754-0.036,1.132c-0.502,0.981-1.194,1.12-2.187,0.986
	c-1.189-0.159-2.367-0.402-3.55-0.604c-1.065-0.184-2.169-0.212-3.188-0.582c-0.507-0.182-1.041,0.002-1.538-0.326
	c-0.807-0.532-1.03-1.317-0.468-2.119C13.309,43.687,13.59,43.296,13.802,42.861z"/>
<path fill-rule="evenodd" clip-rule="evenodd" fill="#282B32" d="M31.063,40.818c0.77-0.101,1.542-0.191,2.314,0.009
	c0.633,0.234,0.422,0.153,0.633,0.234c0.457,0.125,0.896,0.31,1.219,0.659c0.511,0.551,1.226,0.905,1.538,1.646
	c0.039,0.091,0.116,0.223,0.273,0.142c0.007,0.411,0.271,0.735,0.376,1.124c0.396,1.482-0.409,2.212-1.614,2.391
	c-2.049,0.307-4.112,0.406-6.168,0.605c-0.538,0.052-1.075,0.087-1.611,0.125c-1.032,0.072-1.82-0.837-1.636-1.862
	c0.115-0.646,0.313-1.256,0.619-1.837c0.341-0.416,0.514-0.94,0.89-1.343c0,0,1.062-1.091,1.495-1.342
	C29.772,41.148,31.063,40.818,31.063,40.818z"/>
<path fill-rule="evenodd" clip-rule="evenodd" fill="#FCFDFC" d="M8.335,39.914c-0.063-0.01-0.134-0.01-0.126-0.104
	c0.001-0.011,0.017-0.027,0.026-0.027c0.094,0,0.086,0.074,0.095,0.136L8.335,39.914z"/>
<path fill-rule="evenodd" clip-rule="evenodd" fill="#282B32" d="M38.846,29.786c-0.469,1.968-1.622,3.498-3.081,4.855
	c-1.548,1.443-3.402,2.42-5.185,3.506c-1.096,0.669-2.237,1.264-3.466,1.697c-1.467,0.518-2.881,0.506-4.338,0
	c-1.938-0.672-3.688-1.67-5.369-2.837c-1.14-0.792-2.329-1.517-3.374-2.439c-1.215-1.074-2.261-2.318-2.785-3.849
	c-0.612-1.783-0.906-3.651-0.852-5.568c0.039-1.352,0.115-2.698,0.193-4.046c0.017-0.287-0.047-0.301-0.307-0.316
	c-1.371-0.072-2.725-0.276-4.066-0.562c-0.46-0.097-0.906-0.254-1.359-0.38c-0.238-0.067-0.329-0.173-0.105-0.368
	c1.232-1.077,2.478-2.119,3.909-2.95c1.431-0.831,2.957-1.305,4.551-1.633c0.453-0.093,0.608-0.528,0.907-0.794
	c1.281-1.138,2.494-2.335,4.064-3.12c1.198-0.599,2.477-0.808,3.747-1.103c0,0,0.022-0.214,2.983-0.213
	c2.064,0,2.59,0.182,2.59,0.182c1.94,0.43,3.81,1.023,5.527,2.078c1.319,0.809,2.447,1.796,3.394,3.01
	c0.235,0.298,0.605,0.377,0.959,0.458c1.069,0.245,2.114,0.578,3.114,1.022c1.412,0.628,2.61,1.574,3.68,2.685
	c0.279,0.288,0.559,0.572,0.832,0.863c0.07,0.073,0.267,0.076,0.166,0.25c-0.057,0.103-0.156,0.153-0.282,0.183
	c-1.638,0.396-3.292,0.643-4.98,0.628c-0.765-0.006-0.768,0.009-0.694,0.792c0.063,0.655,0.132,1.31,0.196,1.965
	c0,0,0.114,2.243,0.045,2.989C39.388,27.55,38.846,29.786,38.846,29.786z M25.769,21.732c-0.014,2.299,1.945,4.158,4.29,4.034
	c2.257-0.117,3.763-1.813,3.768-4.023c0.005-2.493-2.02-4.11-3.836-4.104C27.361,17.647,25.755,19.029,25.769,21.732z
	 M19.652,25.643c2.479-0.05,4.208-1.941,4.174-4.198c-0.031-2.034-1.826-4.045-4.215-3.836c-2.145,0.189-3.853,1.718-3.889,4.194
	C15.693,23.873,17.593,25.742,19.652,25.643z M28.38,34.157c-0.012-1.057-0.595-1.573-1.283-1.311
	c-1.07,0.405-1.432,1.908-1.018,2.614c0.255,0.427,0.79,0.622,1.214,0.361C27.988,35.397,28.33,34.75,28.38,34.157z M21.832,33.893
	c-0.034,0.668,0.346,1.165,0.735,1.613c0.417,0.482,1.286,0.229,1.524-0.373c0.322-0.805,0.05-1.487-0.433-2.108
	c-0.345-0.443-0.962-0.555-1.348-0.239C21.982,33.053,21.844,33.462,21.832,33.893z"/>
<path fill-rule="evenodd" clip-rule="evenodd" fill="#FCFDFC" d="M25.769,21.732c-0.014-2.703,1.593-4.085,4.222-4.093
	c1.816-0.006,3.841,1.611,3.836,4.104c-0.005,2.21-1.511,3.906-3.768,4.023C27.714,25.89,25.754,24.031,25.769,21.732z
	 M29.82,22.208c0.027-0.62-0.398-1.063-1.049-1.09c-0.71-0.03-1.225,0.448-1.251,1.166c-0.021,0.552,0.477,1.05,1.086,1.086
	C29.244,23.41,29.792,22.882,29.82,22.208z"/>
<path fill-rule="evenodd" clip-rule="evenodd" fill="#FCFDFC" d="M19.652,25.643c-2.059,0.099-3.959-1.77-3.93-3.84
	c0.036-2.477,1.744-4.005,3.889-4.194c2.389-0.209,4.184,1.802,4.215,3.836C23.861,23.702,22.131,25.593,19.652,25.643z
	 M22.133,22.398c-0.022-0.641-0.13-0.763-0.759-0.854c-0.088-0.012-0.168-0.027-0.18-0.135c-0.026-0.254-0.208-0.207-0.376-0.199
	c-0.803,0.029-1.313,0.958-0.916,1.67c0.256,0.461,0.908,0.757,1.374,0.629C21.848,23.353,22.152,22.957,22.133,22.398z"/>
<path fill-rule="evenodd" clip-rule="evenodd" fill="#282B32" d="M29.82,22.208c-0.028,0.674-0.576,1.202-1.214,1.162
	c-0.609-0.037-1.107-0.535-1.086-1.086c0.026-0.718,0.541-1.196,1.251-1.166C29.422,21.145,29.848,21.588,29.82,22.208z"/>
<path fill-rule="evenodd" clip-rule="evenodd" fill="#282B32" d="M22.133,22.398c0.019,0.559-0.285,0.955-0.856,1.112
	c-0.466,0.128-1.118-0.168-1.374-0.629c-0.397-0.712,0.112-1.642,0.916-1.67c0.169-0.007,0.35-0.055,0.376,0.199
	c0.011,0.108,0.092,0.123,0.18,0.135C22.003,21.635,22.11,21.757,22.133,22.398z"/>
</svg>
